<svg xmlns="http://www.w3.org/2000/svg" width="512" height="512" viewBox="0 0 512 512">
  <defs>
    <radialGradient id="bg" gradientUnits="userSpaceOnUse" cx="256" cy="195" r="340">
      <stop offset="0" stop-color="#163a66"/>
      <stop offset="0.55" stop-color="#0e2240"/>
      <stop offset="1" stop-color="#0a1628"/>
    </radialGradient>
  </defs>
  <rect width="512" height="512" fill="url(#bg)"/>
  <svg x="106" y="106" width="300" height="300" viewBox="0 0 24 24">
    <defs>
      <filter id="g" x="-40%" y="-40%" width="180%" height="180%">
        <feGaussianBlur in="SourceAlpha" stdDeviation="0.55" result="b"/>
        <feFlood flood-color="#4a9eff" flood-opacity="0.95"/>
        <feComposite in2="b" operator="in" result="glow"/>
        <feMerge><feMergeNode in="glow"/><feMergeNode in="SourceGraphic"/></feMerge>
      </filter>
    </defs>
    <g filter="url(#g)" fill="none" stroke="#7cc0ff" stroke-width="1.6" stroke-linecap="round" stroke-linejoin="round">
      <path d="M17 21a1 1 0 0 0 1-1v-5.35c0-.457.316-.844.727-1.041a4 4 0 0 0-2.134-7.589 5 5 0 0 0-9.186 0 4 4 0 0 0-2.134 7.588c.411.198.727.585.727 1.041V20a1 1 0 0 0 1 1Z"/>
      <path d="M6 17h12"/>
    </g>
  </svg>
</svg>
